<svg xmlns="http://www.w3.org/2000/svg" width="227" height="198" viewBox="0 0 227 198" fill="none">
  <path d="M124.872 11.7351C124.872 11.7351 106.123 53.8166 56.5401 44.1765C6.95759 34.5364 -22.9158 102.359 23.9603 127.088C70.8364 151.817 38.3501 180.226 69.6132 194.737C105.146 211.229 118.396 156.081 144.574 161.203C202.348 172.507 238.086 153.12 222.283 127.03C194.544 81.2327 174.403 82.9187 182.588 53.3438C190.773 23.769 144.55 -21.6335 124.872 11.7351Z" fill="#13112C"/>
  <path d="M115.821 107.78C111.465 116.129 110.365 120.567 97.1501 128.851C97.0475 128.918 96.9706 129.018 96.9319 129.134C94.8206 135.68 91.2466 141.658 86.481 146.617C86.4168 146.683 86.3717 146.765 86.3503 146.855C86.329 146.945 86.3323 147.038 86.3598 147.126C87.8389 152.049 89.4398 160.924 84.9857 168.198C78.4387 178.908 73.5897 172.441 74.5995 170.017C75.4643 167.939 82.8519 163.478 81.1465 152.332C81.1321 152.243 81.0951 152.159 81.0389 152.088C80.9827 152.017 80.9092 151.962 80.8256 151.928C80.742 151.894 80.6509 151.882 80.5613 151.893C80.4717 151.904 80.3865 151.938 80.3139 151.992C74.9591 155.879 68.8131 158.536 62.3138 159.776C62.2416 159.788 62.1728 159.815 62.1119 159.856C62.0509 159.896 61.9993 159.949 61.9603 160.011C61.9213 160.073 61.8959 160.142 61.8858 160.215C61.8757 160.287 61.881 160.361 61.9015 160.431C63.5585 166.364 64.3425 175.635 57.4237 184.162C53.73 188.607 48.8318 182.109 53.73 177.68C56.769 174.94 56.5346 167.059 55.1121 160.989C55.0849 160.871 55.0176 160.766 54.9218 160.693C54.826 160.619 54.7075 160.581 54.5866 160.585C54.3038 160.593 54.0126 160.593 53.73 160.593C43.7325 160.608 34.0128 157.304 26.0952 151.2C26.0228 151.143 25.9369 151.107 25.8459 151.093C25.755 151.08 25.6621 151.091 25.5765 151.124C25.4909 151.157 25.4155 151.213 25.3576 151.284C25.2997 151.355 25.2615 151.441 25.2466 151.531C23.347 164.075 30.8886 168.416 31.9632 171.633C33.1595 175.23 30.4113 178.431 27.0247 177.526C26.9513 177.504 26.8827 177.468 26.8227 177.42C15.7817 169.127 16.7435 151.75 17.9559 143.384C17.967 143.316 17.9634 143.246 17.9452 143.179C17.9271 143.112 17.8949 143.05 17.8508 142.996C11.6765 135.051 8.33378 125.27 8.3536 115.208C8.3536 96.755 19.3703 80.8725 35.1882 73.784C35.1893 73.784 35.1904 73.7838 35.1914 73.7835C35.1924 73.7831 35.1933 73.7825 35.194 73.7817C35.1948 73.781 35.1954 73.7801 35.1958 73.7791C35.1962 73.7781 35.1964 73.7771 35.1964 73.776C37.6291 70.696 40.5956 66.3399 41.0484 63.2847C41.0633 63.1812 41.1087 63.0845 41.1789 63.0069C41.2491 62.9294 41.3407 62.8745 41.4422 62.8493C41.5438 62.8242 41.6505 62.8298 41.7487 62.8656C41.847 62.9014 41.9324 62.9656 41.9939 63.0502C43.1579 64.6182 44.9604 67.6089 44.5643 70.7611C44.5481 70.8661 44.5401 70.9711 44.5239 71.0762C44.4915 71.2542 44.4512 71.4239 44.4107 71.6017C44.3703 71.7391 44.3379 71.8765 44.2895 72.014C44.8548 71.5423 45.3941 71.0404 45.9052 70.5105C47.0933 69.2901 48.5967 67.4553 49.2434 65.4912C49.274 65.3864 49.3363 65.2937 49.4218 65.2258C49.5072 65.1579 49.6116 65.1181 49.7206 65.112C49.8296 65.1058 49.9378 65.1336 50.0304 65.1915C50.1229 65.2494 50.1952 65.3345 50.2374 65.4352C50.6574 66.4698 51.1508 67.9166 51.3204 69.3957C51.3351 69.5284 51.3987 69.6508 51.4989 69.739C51.599 69.8272 51.7285 69.8748 51.862 69.8725C52.4844 69.8483 53.1067 69.8322 53.7291 69.8322C78.7935 69.8322 99.1135 90.1521 99.1135 115.208C99.1135 115.782 99.1054 116.348 99.081 116.914C99.0775 117 99.095 117.086 99.1321 117.164C99.1693 117.242 99.2249 117.31 99.2941 117.362C99.3634 117.414 99.4442 117.448 99.5296 117.461C99.615 117.475 99.7024 117.467 99.7842 117.439C102.484 116.494 105.887 114.214 107.94 108.791C111.779 98.6873 112.183 95.8585 110.971 87.9778C109.758 80.097 115.619 80.5018 116.831 83.1282C118.042 85.7546 120.67 98.4848 115.821 107.78Z" fill="url(#paint0_linear_698_3550)"/>
  <path d="M36.0038 119.189C35.8492 119.188 35.699 119.137 35.5767 119.043C35.4543 118.948 35.3667 118.816 35.3274 118.666C35.0227 117.335 34.9572 115.96 35.1341 114.606C35.5321 111.663 37.1337 109.5 39.7659 108.35C41.4859 107.599 43.1119 107.556 44.5984 108.222C47.6452 109.588 48.9423 113.46 48.9961 113.624C49.0482 113.798 49.03 113.987 48.9454 114.148C48.8608 114.31 48.7164 114.432 48.5431 114.489C48.3697 114.546 48.1811 114.532 48.0173 114.452C47.8535 114.372 47.7274 114.231 47.6661 114.059C47.655 114.026 46.5013 110.605 44.0216 109.497C42.9114 109.002 41.6683 109.047 40.3267 109.633C38.1487 110.585 36.8705 112.307 36.5278 114.752C36.3712 115.939 36.4236 117.144 36.6826 118.313C36.7292 118.492 36.7026 118.683 36.6087 118.843C36.5147 119.003 36.3611 119.12 36.1814 119.167C36.1234 119.181 36.0637 119.189 36.0038 119.189Z" fill="white"/>
  <path d="M57.105 112.778C56.9584 112.778 56.8154 112.732 56.6964 112.646C56.5774 112.561 56.4883 112.44 56.4417 112.301C56.051 110.998 55.8965 109.635 55.9853 108.278C56.1918 105.328 57.65 103.074 60.2024 101.76C61.8734 100.901 63.4955 100.752 65.0244 101.322C68.1464 102.484 69.6895 106.239 69.7536 106.398C69.8209 106.57 69.8177 106.762 69.7446 106.931C69.6716 107.1 69.5346 107.234 69.3635 107.303C69.1923 107.372 69.0009 107.371 68.8308 107.299C68.6607 107.228 68.5257 107.092 68.4551 106.922C68.4411 106.889 67.0721 103.574 64.5308 102.632C63.3878 102.208 62.1474 102.334 60.8432 103.005C58.7318 104.092 57.5684 105.884 57.3852 108.334C57.3061 109.522 57.4363 110.715 57.77 111.858C57.8048 111.963 57.814 112.075 57.7971 112.184C57.7802 112.294 57.7375 112.398 57.6727 112.488C57.6078 112.578 57.5226 112.651 57.4239 112.701C57.3253 112.752 57.2161 112.778 57.1053 112.778H57.105Z" fill="white"/>
  <path d="M55.3239 127.423C50.5596 127.423 46.9269 124.252 46.745 124.091C46.6763 124.03 46.6202 123.956 46.5801 123.873C46.5399 123.79 46.5164 123.701 46.511 123.609C46.5055 123.517 46.5182 123.425 46.5483 123.338C46.5784 123.251 46.6253 123.171 46.6863 123.103C46.7474 123.034 46.8214 122.978 46.9041 122.938C46.9868 122.897 47.0765 122.874 47.1683 122.869C47.2601 122.863 47.352 122.876 47.4389 122.906C47.5258 122.936 47.6059 122.983 47.6746 123.044C47.7223 123.086 52.5196 127.255 57.9208 125.645C63.2968 124.044 64.7711 117.217 64.7856 117.149C64.8248 116.969 64.9334 116.812 65.0879 116.711C65.2423 116.611 65.4302 116.575 65.6106 116.612C65.7911 116.649 65.9497 116.756 66.0519 116.91C66.1541 117.063 66.1918 117.25 66.1567 117.431C65.8239 118.845 65.3026 120.208 64.6068 121.483C63.0699 124.316 60.8968 126.22 58.3208 126.987C57.3483 127.277 56.3387 127.424 55.3239 127.423Z" fill="white"/>
  <path d="M206.218 96.2658C206.158 97.7857 206.003 99.3004 205.755 100.801C202.38 121.445 182.919 135.438 162.275 132.063C141.639 128.69 127.637 109.227 131.013 88.5826C131.228 87.2666 131.512 85.9786 131.848 84.7225C116.538 74.3247 117.432 54.2743 120.367 52.0514C123.331 49.8004 126.567 51.6972 126.229 57.9237C125.881 66.9658 131.448 74.4437 134.536 77.7008C141.765 63.2888 157.742 54.5819 174.493 57.3203C190.75 59.9776 202.877 72.6153 205.654 87.9422C208.685 86.8405 214.036 83.6613 218.372 74.624C218.978 72.8229 219.145 71.4989 219.177 70.7015C219.199 69.9566 219.49 69.2447 219.996 68.6978C220.944 67.7062 222.623 66.6538 224.791 68.2697C225.285 68.6384 225.682 69.1199 225.951 69.674C226.219 70.2281 226.351 70.8385 226.335 71.454C226.199 76.3382 222.291 88.2216 206.218 96.2658Z" fill="#3A00AD"/>
  <path d="M183.698 102.961C182.742 108.808 174.7 112.359 165.742 110.894C156.776 109.429 150.284 103.502 151.24 97.6555C151.422 96.5667 151.847 95.533 152.484 94.6315C152.659 94.3875 152.92 94.2195 153.214 94.1622C153.508 94.1049 153.813 94.1627 154.066 94.3235C157.276 96.333 162.356 98.1049 168.217 99.0631C173.611 99.9451 178.603 99.9583 182.236 99.269C182.532 99.2123 182.838 99.2716 183.091 99.4345C183.345 99.5975 183.526 99.8516 183.597 100.144C183.815 101.068 183.85 102.025 183.698 102.961Z" fill="white"/>
  <path d="M166.701 91.36C166.599 91.3601 166.499 91.3382 166.407 91.2956C166.314 91.2531 166.233 91.191 166.167 91.1136C166.101 91.0363 166.053 90.9455 166.026 90.8477C165.998 90.7498 165.993 90.6472 166.009 90.547C166.244 89.1097 165.898 87.6379 165.048 86.4554C164.198 85.2729 162.913 84.4766 161.475 84.2417C160.038 84.0067 158.566 84.3524 157.384 85.2026C156.201 86.0528 155.405 87.338 155.17 88.7753C155.14 88.9585 155.039 89.1223 154.888 89.2307C154.737 89.3391 154.55 89.3831 154.366 89.3532C154.183 89.3232 154.019 89.2217 153.911 89.0709C153.803 88.9202 153.759 88.7326 153.788 88.5494C154.083 86.7456 155.083 85.1328 156.567 84.0658C158.051 82.9989 159.898 82.5651 161.701 82.8599C163.505 83.1548 165.118 84.1541 166.185 85.6381C167.252 87.122 167.686 88.9691 167.391 90.7728C167.364 90.9366 167.28 91.0855 167.154 91.1931C167.027 91.3006 166.867 91.3598 166.701 91.36Z" fill="white"/>
  <path d="M183.492 94.105C183.39 94.1049 183.29 94.0828 183.198 94.0402C183.106 93.9975 183.024 93.9354 182.958 93.8581C182.893 93.7808 182.844 93.6901 182.817 93.5924C182.79 93.4946 182.784 93.3921 182.8 93.2919C183.029 91.8572 182.681 90.3901 181.83 89.2121C180.98 88.034 179.697 87.2409 178.264 87.0065C176.83 86.7722 175.361 87.1156 174.18 87.9616C172.999 88.8076 172.201 90.0872 171.962 91.5202C171.947 91.6112 171.915 91.6984 171.866 91.7768C171.818 91.8552 171.755 91.9233 171.68 91.9772C171.605 92.0311 171.521 92.0697 171.431 92.0909C171.341 92.112 171.248 92.1152 171.157 92.1004C171.066 92.0855 170.979 92.0529 170.901 92.0043C170.823 91.9557 170.755 91.8921 170.701 91.8173C170.648 91.7424 170.609 91.6577 170.588 91.5679C170.568 91.4782 170.565 91.3852 170.58 91.2944C170.88 89.4952 171.881 87.8883 173.363 86.8258C174.846 85.7633 176.689 85.3319 178.489 85.6262C180.289 85.9204 181.899 86.9163 182.966 88.3956C184.034 89.8749 184.471 91.7169 184.182 93.5179C184.155 93.6816 184.071 93.8306 183.945 93.9381C183.818 94.0457 183.658 94.1048 183.492 94.105Z" fill="white"/>
  <defs>
    <linearGradient id="paint0_linear_698_3550" x1="8.35352" y1="72.6481" x2="135.587" y2="96.9651" gradientUnits="userSpaceOnUse">
      <stop stop-color="#7A00A3"/>
      <stop offset="0.523958" stop-color="#9900CC"/>
      <stop offset="1" stop-color="#3A00AD"/>
    </linearGradient>
  </defs>
</svg>