<svg width="56" height="56" viewBox="0 0 56 56" fill="none" xmlns="http://www.w3.org/2000/svg">
<g clip-path="url(#clip0_1989_72651)">
<path d="M7.77821 10.8899C7.36565 10.8899 6.96999 11.0538 6.67827 11.3455C6.38654 11.6372 6.22266 12.0329 6.22266 12.4454V46.6677C6.22266 47.0802 6.38654 47.4759 6.67827 47.7676C6.96999 48.0593 7.36565 48.2232 7.77821 48.2232C8.19077 48.2232 8.58643 48.0593 8.87816 47.7676C9.16988 47.4759 9.33377 47.0802 9.33377 46.6677V12.4454C9.33377 12.0329 9.16988 11.6372 8.87816 11.3455C8.58643 11.0538 8.19077 10.8899 7.77821 10.8899Z" fill="#E6E6E6"/>
<path d="M13.9999 10.8899C13.5873 10.8899 13.1917 11.0538 12.8999 11.3455C12.6082 11.6372 12.4443 12.0329 12.4443 12.4454V40.4454C12.4443 40.858 12.6082 41.2537 12.8999 41.5454C13.1917 41.8371 13.5873 42.001 13.9999 42.001C14.4125 42.001 14.8081 41.8371 15.0998 41.5454C15.3916 41.2537 15.5554 40.858 15.5554 40.4454V12.4454C15.5554 12.0329 15.3916 11.6372 15.0998 11.3455C14.8081 11.0538 14.4125 10.8899 13.9999 10.8899Z" fill="#E6E6E6"/>
<path d="M20.2225 10.8899C19.81 10.8899 19.4143 11.0538 19.1226 11.3455C18.8309 11.6372 18.667 12.0329 18.667 12.4454V40.4454C18.667 40.858 18.8309 41.2537 19.1226 41.5454C19.4143 41.8371 19.81 42.001 20.2225 42.001C20.6351 42.001 21.0308 41.8371 21.3225 41.5454C21.6142 41.2537 21.7781 40.858 21.7781 40.4454V12.4454C21.7781 12.0329 21.6142 11.6372 21.3225 11.3455C21.0308 11.0538 20.6351 10.8899 20.2225 10.8899Z" fill="#E6E6E6"/>
<path d="M26.4442 10.8899C26.0317 10.8899 25.636 11.0538 25.3443 11.3455C25.0526 11.6372 24.8887 12.0329 24.8887 12.4454V40.4454C24.8887 40.858 25.0526 41.2537 25.3443 41.5454C25.636 41.8371 26.0317 42.001 26.4442 42.001C26.8568 42.001 27.2524 41.8371 27.5442 41.5454C27.8359 41.2537 27.9998 40.858 27.9998 40.4454V12.4454C27.9998 12.0329 27.8359 11.6372 27.5442 11.3455C27.2524 11.0538 26.8568 10.8899 26.4442 10.8899Z" fill="#E6E6E6"/>
<path d="M32.6669 10.8899C32.2543 10.8899 31.8587 11.0538 31.5669 11.3455C31.2752 11.6372 31.1113 12.0329 31.1113 12.4454V40.4454C31.1113 40.858 31.2752 41.2537 31.5669 41.5454C31.8587 41.8371 32.2543 42.001 32.6669 42.001C33.0794 42.001 33.4751 41.8371 33.7668 41.5454C34.0586 41.2537 34.2224 40.858 34.2224 40.4454V12.4454C34.2224 12.0329 34.0586 11.6372 33.7668 11.3455C33.4751 11.0538 33.0794 10.8899 32.6669 10.8899Z" fill="#E6E6E6"/>
<path d="M38.8886 10.8899C38.476 10.8899 38.0803 11.0538 37.7886 11.3455C37.4969 11.6372 37.333 12.0329 37.333 12.4454V40.4454C37.333 40.858 37.4969 41.2537 37.7886 41.5454C38.0803 41.8371 38.476 42.001 38.8886 42.001C39.3011 42.001 39.6968 41.8371 39.9885 41.5454C40.2802 41.2537 40.4441 40.858 40.4441 40.4454V12.4454C40.4441 12.0329 40.2802 11.6372 39.9885 11.3455C39.6968 11.0538 39.3011 10.8899 38.8886 10.8899Z" fill="#E6E6E6"/>
<path d="M45.1112 10.8899C44.6987 10.8899 44.303 11.0538 44.0113 11.3455C43.7196 11.6372 43.5557 12.0329 43.5557 12.4454V40.4454C43.5557 40.858 43.7196 41.2537 44.0113 41.5454C44.303 41.8371 44.6987 42.001 45.1112 42.001C45.5238 42.001 45.9194 41.8371 46.2112 41.5454C46.5029 41.2537 46.6668 40.858 46.6668 40.4454V12.4454C46.6668 12.0329 46.5029 11.6372 46.2112 11.3455C45.9194 11.0538 45.5238 10.8899 45.1112 10.8899Z" fill="#E6E6E6"/>
<path d="M51.3329 10.8899C50.9203 10.8899 50.5247 11.0538 50.233 11.3455C49.9412 11.6372 49.7773 12.0329 49.7773 12.4454V46.6677C49.7773 47.0802 49.9412 47.4759 50.233 47.7676C50.5247 48.0593 50.9203 48.2232 51.3329 48.2232C51.7455 48.2232 52.1411 48.0593 52.4328 47.7676C52.7246 47.4759 52.8885 47.0802 52.8885 46.6677V12.4454C52.8885 12.0329 52.7246 11.6372 52.4328 11.3455C52.1411 11.0538 51.7455 10.8899 51.3329 10.8899Z" fill="#E6E6E6"/>
<g clip-path="url(#clip1_1989_72651)">
<g clip-path="url(#clip2_1989_72651)">
<circle cx="42.6719" cy="42.6191" r="13.5" fill="#39A462"/>
<path d="M48.0936 38.5693L41.2803 47.3865L37.2725 43.3787" stroke="white" stroke-width="2.57143" stroke-linecap="round" stroke-linejoin="round"/>
</g>
</g>
</g>
<defs>
<clipPath id="clip0_1989_72651">
<rect width="56" height="56" fill="white"/>
</clipPath>
<clipPath id="clip1_1989_72651">
<rect width="27.2087" height="27.2087" fill="white" transform="translate(29 29)"/>
</clipPath>
<clipPath id="clip2_1989_72651">
<rect width="27" height="27" fill="white" transform="translate(29.1719 29.1191)"/>
</clipPath>
</defs>
</svg>
