<svg xmlns="http://www.w3.org/2000/svg" width="40" height="41" viewBox="0 0 40 41" fill="none">
  <mask id="mask0_20_1773" style="mask-type:alpha" maskUnits="userSpaceOnUse" x="0" y="0" width="40" height="41">
    <rect y="0.179688" width="40" height="40" fill="#D9D9D9"/>
  </mask>
  <g mask="url(#mask0_20_1773)">
    <path d="M25.8333 33.3879L18.75 26.3045L21.0833 23.9712L25.8333 28.7212L35.25 19.3045L37.5833 21.6379L25.8333 33.3879ZM35 16.8462H31.6667V8.51286H28.3333V13.5129H11.6667V8.51286H8.33333V31.8462H18.3333V35.1795H8.33333C7.41667 35.1795 6.63194 34.8531 5.97917 34.2004C5.32639 33.5476 5 32.7629 5 31.8462V8.51286C5 7.59619 5.32639 6.81147 5.97917 6.15869C6.63194 5.50591 7.41667 5.17952 8.33333 5.17952H15.2917C15.5972 4.2073 16.1944 3.40869 17.0833 2.78369C17.9722 2.15869 18.9444 1.84619 20 1.84619C21.1111 1.84619 22.1042 2.15869 22.9792 2.78369C23.8542 3.40869 24.4444 4.2073 24.75 5.17952H31.6667C32.5833 5.17952 33.3681 5.50591 34.0208 6.15869C34.6736 6.81147 35 7.59619 35 8.51286V16.8462ZM20 8.51286C20.4722 8.51286 20.8681 8.35314 21.1875 8.03369C21.5069 7.71425 21.6667 7.31841 21.6667 6.84619C21.6667 6.37397 21.5069 5.97814 21.1875 5.65869C20.8681 5.33925 20.4722 5.17952 20 5.17952C19.5278 5.17952 19.1319 5.33925 18.8125 5.65869C18.4931 5.97814 18.3333 6.37397 18.3333 6.84619C18.3333 7.31841 18.4931 7.71425 18.8125 8.03369C19.1319 8.35314 19.5278 8.51286 20 8.51286Z" fill="url(#paint0_linear_20_1773)"/>
  </g>
  <defs>
    <linearGradient id="paint0_linear_20_1773" x1="5" y1="2.17953" x2="30" y2="35.1795" gradientUnits="userSpaceOnUse">
      <stop stop-color="#0000FF"/>
      <stop offset="1" stop-color="#FF00FF"/>
    </linearGradient>
  </defs>
</svg>