<svg xmlns="http://www.w3.org/2000/svg" width="34" height="41" viewBox="0 0 34 41" fill="none">
  <path fill-rule="evenodd" clip-rule="evenodd" d="M0 27.1294V4.48756L16.6244 0L33.2488 4.48756V27.1294H33.2483C33.2486 27.1633 33.2488 27.1973 33.2488 27.2313C33.2488 34.8356 25.8058 41 16.6244 41C7.44299 41 0 34.8356 0 27.2313C0 27.1973 0.000149022 27.1633 0.000446555 27.1294H0Z" fill="url(#paint0_radial_1_3440)"/>
  <path fill-rule="evenodd" clip-rule="evenodd" d="M16.7291 9.22203L16.5653 9.17889L16.4026 9.22613L4.11023 12.7958L3.66895 12.9239V13.3834V27.764V27.8839L3.71419 27.995C4.3554 29.5685 5.76281 31.8918 7.92606 33.8293C10.0969 35.7736 13.0555 37.3511 16.7765 37.3511C20.4944 37.3511 23.4032 35.8101 25.5144 33.9042C27.6166 32.0065 28.9488 29.7303 29.5389 28.1865L29.5792 28.081V27.968V19.6048V18.4172L28.6121 19.1065L18.751 26.1355L15.394 24.4784L19.9876 20.9109L29.3249 14.186L29.5792 14.0028V13.6894V13.0775V12.6058L29.1231 12.4857L16.7291 9.22203ZM18.4488 20.5563L4.89283 14.3374V27.6421C5.49192 29.0605 6.78139 31.1611 8.7426 32.9177C10.7471 34.713 13.4267 36.1272 16.7765 36.1272C20.1292 36.1272 22.7571 34.7445 24.6943 32.9958C26.5924 31.2822 27.8072 29.2334 28.3553 27.853V20.7925L19.1635 27.3444L18.8655 27.5568L18.5374 27.3949L6.3466 21.3775L6.88831 20.28L14.174 23.8762L18.4488 20.5563ZM19.5524 19.716L6.03018 13.5127L16.5813 10.4487L28.1793 13.5028L19.5524 19.716Z" fill="#FEFEFE"/>
  <path d="M16.6249 2.65173L17.1057 4.13167H18.6618L17.4029 5.04633L17.8838 6.52627L16.6249 5.61162L15.3659 6.52627L15.8468 5.04633L14.5879 4.13167H16.144L16.6249 2.65173Z" fill="#FEFEFE"/>
  <path d="M21.7241 4.48755L21.9301 5.12181H22.597L22.0575 5.5138L22.2636 6.14806L21.7241 5.75607L21.1845 6.14806L21.3906 5.5138L20.8511 5.12181H21.518L21.7241 4.48755Z" fill="#FEFEFE"/>
  <path d="M25.5995 5.50745L25.8056 6.14171H26.4725L25.933 6.5337L26.1391 7.16796L25.5995 6.77597L25.06 7.16796L25.2661 6.5337L24.7266 6.14171H25.3935L25.5995 5.50745Z" fill="#FEFEFE"/>
  <path d="M11.525 4.48755L11.3189 5.12181H10.652L11.1915 5.5138L10.9854 6.14806L11.525 5.75607L12.0645 6.14806L11.8584 5.5138L12.3979 5.12181H11.731L11.525 4.48755Z" fill="#FEFEFE"/>
  <path d="M7.64899 5.50745L7.4429 6.14171H6.776L7.31554 6.5337L7.10945 7.16796L7.64899 6.77597L8.18852 7.16796L7.98244 6.5337L8.52197 6.14171H7.85507L7.64899 5.50745Z" fill="#FEFEFE"/>
  <defs>
    <radialGradient id="paint0_radial_1_3440" cx="0" cy="0" r="1" gradientUnits="userSpaceOnUse" gradientTransform="translate(2.28699e-06 4.58955) rotate(50.003) scale(43.0018 56.6482)">
      <stop stop-color="#AE2CB4"/>
      <stop offset="0.368243" stop-color="#840090"/>
      <stop offset="0.659296" stop-color="#580095"/>
      <stop offset="1" stop-color="#1909E5"/>
    </radialGradient>
  </defs>
</svg>