<svg xmlns="http://www.w3.org/2000/svg" width="38" height="38" viewBox="0 0 38 38" fill="none">
  <path d="M14.8334 26.6797V11.6797L26.5001 19.1797L14.8334 26.6797ZM19.0001 37.513C16.0001 37.513 13.1876 36.8255 10.5626 35.4505C7.93758 34.0755 5.75008 32.1519 4.00008 29.6797V34.1797H0.666748V24.1797H10.6667V27.513H6.58342C8.00008 29.5964 9.79869 31.2283 11.9792 32.4089C14.1598 33.5894 16.5001 34.1797 19.0001 34.1797C22.1945 34.1797 25.0904 33.263 27.6876 31.4297C30.2848 29.5964 32.1112 27.1658 33.1667 24.138L36.4168 24.888C35.1668 28.6658 32.9445 31.7144 29.7501 34.0339C26.5556 36.3533 22.9723 37.513 19.0001 37.513ZM0.750081 17.513C0.944526 15.6519 1.38897 13.8672 2.08341 12.1589C2.77786 10.4505 3.73619 8.87413 4.95842 7.42969L7.33342 9.80469C6.44453 10.9436 5.7223 12.1589 5.16675 13.4505C4.61119 14.7422 4.26397 16.0964 4.12508 17.513H0.750081ZM9.66675 7.47135L7.29175 5.09635C8.76397 3.87413 10.3473 2.90885 12.0417 2.20052C13.7362 1.49219 15.5001 1.06858 17.3334 0.929688V4.26302C15.9167 4.40191 14.5695 4.74913 13.2917 5.30469C12.014 5.86024 10.8056 6.58247 9.66675 7.47135ZM28.3751 7.47135C27.2362 6.58247 26.0209 5.86024 24.7292 5.30469C23.4376 4.74913 22.0834 4.40191 20.6667 4.26302V0.929688C22.5279 1.09635 24.3126 1.52691 26.0209 2.22135C27.7292 2.9158 29.3056 3.87413 30.7501 5.09635L28.3751 7.47135ZM33.9168 17.513C33.7779 16.0964 33.4306 14.7422 32.8751 13.4505C32.3195 12.1589 31.5973 10.9436 30.7084 9.80469L33.0834 7.42969C34.3056 8.87413 35.264 10.4505 35.9584 12.1589C36.6529 13.8672 37.0834 15.6519 37.2501 17.513H33.9168Z" fill="url(#paint0_linear_20_1765)"/>
  <defs>
    <linearGradient id="paint0_linear_20_1765" x1="1.00006" y1="1.17969" x2="36.0001" y2="36.6797" gradientUnits="userSpaceOnUse">
      <stop stop-color="#9900CC"/>
      <stop offset="1" stop-color="#3A00AD"/>
    </linearGradient>
  </defs>
</svg>