<svg xmlns="http://www.w3.org/2000/svg" width="40" height="41" viewBox="0 0 40 41" fill="none">
  <mask id="mask0_20_1758" style="mask-type:alpha" maskUnits="userSpaceOnUse" x="0" y="0" width="40" height="41">
    <rect y="0.179688" width="40" height="40" fill="#D9D9D9"/>
  </mask>
  <g mask="url(#mask0_20_1758)">
    <path d="M15 31.8462V28.5129H35V31.8462H15ZM15 21.8462V18.5129H35V21.8462H15ZM15 11.8462V8.51286H35V11.8462H15ZM8.33333 33.5129C7.41667 33.5129 6.63194 33.1865 5.97917 32.5337C5.32639 31.8809 5 31.0962 5 30.1795C5 29.2629 5.32639 28.4781 5.97917 27.8254C6.63194 27.1726 7.41667 26.8462 8.33333 26.8462C9.25 26.8462 10.0347 27.1726 10.6875 27.8254C11.3403 28.4781 11.6667 29.2629 11.6667 30.1795C11.6667 31.0962 11.3403 31.8809 10.6875 32.5337C10.0347 33.1865 9.25 33.5129 8.33333 33.5129ZM8.33333 23.5129C7.41667 23.5129 6.63194 23.1865 5.97917 22.5337C5.32639 21.8809 5 21.0962 5 20.1795C5 19.2629 5.32639 18.4781 5.97917 17.8254C6.63194 17.1726 7.41667 16.8462 8.33333 16.8462C9.25 16.8462 10.0347 17.1726 10.6875 17.8254C11.3403 18.4781 11.6667 19.2629 11.6667 20.1795C11.6667 21.0962 11.3403 21.8809 10.6875 22.5337C10.0347 23.1865 9.25 23.5129 8.33333 23.5129ZM8.33333 13.5129C7.41667 13.5129 6.63194 13.1865 5.97917 12.5337C5.32639 11.8809 5 11.0962 5 10.1795C5 9.26286 5.32639 8.47814 5.97917 7.82536C6.63194 7.17258 7.41667 6.84619 8.33333 6.84619C9.25 6.84619 10.0347 7.17258 10.6875 7.82536C11.3403 8.47814 11.6667 9.26286 11.6667 10.1795C11.6667 11.0962 11.3403 11.8809 10.6875 12.5337C10.0347 13.1865 9.25 13.5129 8.33333 13.5129Z" fill="url(#paint0_linear_20_1758)"/>
  </g>
  <defs>
    <linearGradient id="paint0_linear_20_1758" x1="35" y1="33.1796" x2="5" y2="7.17955" gradientUnits="userSpaceOnUse">
      <stop stop-color="#9900CC"/>
      <stop offset="1" stop-color="#FF00FF"/>
    </linearGradient>
  </defs>
</svg>