<svg xmlns="http://www.w3.org/2000/svg" width="40" height="41" viewBox="0 0 40 41" fill="none">
  <mask id="mask0_20_1768" style="mask-type:alpha" maskUnits="userSpaceOnUse" x="0" y="0" width="40" height="41">
    <rect y="0.179688" width="40" height="40" fill="#D9D9D9"/>
  </mask>
  <g mask="url(#mask0_20_1768)">
    <path d="M0 30.1797V27.5547C0 26.3602 0.611111 25.388 1.83333 24.638C3.05556 23.888 4.66667 23.513 6.66667 23.513C7.02778 23.513 7.375 23.52 7.70833 23.5339C8.04167 23.5477 8.36111 23.5825 8.66667 23.638C8.27778 24.2214 7.98611 24.8325 7.79167 25.4714C7.59722 26.1102 7.5 26.7769 7.5 27.4714V30.1797H0ZM10 30.1797V27.4714C10 26.5825 10.2431 25.77 10.7292 25.0339C11.2153 24.2977 11.9028 23.6519 12.7917 23.0964C13.6806 22.5408 14.7431 22.1241 15.9792 21.8464C17.2153 21.5686 18.5556 21.4297 20 21.4297C21.4722 21.4297 22.8264 21.5686 24.0625 21.8464C25.2986 22.1241 26.3611 22.5408 27.25 23.0964C28.1389 23.6519 28.8194 24.2977 29.2917 25.0339C29.7639 25.77 30 26.5825 30 27.4714V30.1797H10ZM32.5 30.1797V27.4714C32.5 26.7491 32.4097 26.0686 32.2292 25.4297C32.0486 24.7908 31.7778 24.1936 31.4167 23.638C31.7222 23.5825 32.0347 23.5477 32.3542 23.5339C32.6736 23.52 33 23.513 33.3333 23.513C35.3333 23.513 36.9444 23.8811 38.1667 24.6172C39.3889 25.3533 40 26.3325 40 27.5547V30.1797H32.5ZM13.5417 26.8464H26.5C26.2222 26.2908 25.4514 25.8047 24.1875 25.388C22.9236 24.9714 21.5278 24.763 20 24.763C18.4722 24.763 17.0764 24.9714 15.8125 25.388C14.5486 25.8047 13.7917 26.2908 13.5417 26.8464ZM6.66667 21.8464C5.75 21.8464 4.96528 21.52 4.3125 20.8672C3.65972 20.2144 3.33333 19.4297 3.33333 18.513C3.33333 17.5686 3.65972 16.7769 4.3125 16.138C4.96528 15.4991 5.75 15.1797 6.66667 15.1797C7.61111 15.1797 8.40278 15.4991 9.04167 16.138C9.68056 16.7769 10 17.5686 10 18.513C10 19.4297 9.68056 20.2144 9.04167 20.8672C8.40278 21.52 7.61111 21.8464 6.66667 21.8464ZM33.3333 21.8464C32.4167 21.8464 31.6319 21.52 30.9792 20.8672C30.3264 20.2144 30 19.4297 30 18.513C30 17.5686 30.3264 16.7769 30.9792 16.138C31.6319 15.4991 32.4167 15.1797 33.3333 15.1797C34.2778 15.1797 35.0694 15.4991 35.7083 16.138C36.3472 16.7769 36.6667 17.5686 36.6667 18.513C36.6667 19.4297 36.3472 20.2144 35.7083 20.8672C35.0694 21.52 34.2778 21.8464 33.3333 21.8464ZM20 20.1797C18.6111 20.1797 17.4306 19.6936 16.4583 18.7214C15.4861 17.7491 15 16.5686 15 15.1797C15 13.763 15.4861 12.5755 16.4583 11.6172C17.4306 10.6589 18.6111 10.1797 20 10.1797C21.4167 10.1797 22.6042 10.6589 23.5625 11.6172C24.5208 12.5755 25 13.763 25 15.1797C25 16.5686 24.5208 17.7491 23.5625 18.7214C22.6042 19.6936 21.4167 20.1797 20 20.1797ZM20 16.8464C20.4722 16.8464 20.8681 16.6866 21.1875 16.3672C21.5069 16.0477 21.6667 15.6519 21.6667 15.1797C21.6667 14.7075 21.5069 14.3116 21.1875 13.9922C20.8681 13.6727 20.4722 13.513 20 13.513C19.5278 13.513 19.1319 13.6727 18.8125 13.9922C18.4931 14.3116 18.3333 14.7075 18.3333 15.1797C18.3333 15.6519 18.4931 16.0477 18.8125 16.3672C19.1319 16.6866 19.5278 16.8464 20 16.8464Z" fill="url(#paint0_linear_20_1768)"/>
  </g>
  <defs>
    <linearGradient id="paint0_linear_20_1768" x1="0" y1="10.1797" x2="40" y2="30.1797" gradientUnits="userSpaceOnUse">
      <stop stop-color="#3A00AD"/>
      <stop offset="1" stop-color="#0000FF"/>
    </linearGradient>
  </defs>
</svg>