<svg width="56" height="57" viewBox="0 0 56 57" fill="none" xmlns="http://www.w3.org/2000/svg">
<path d="M33.8415 35.9225L26.5673 28.6483C26.3015 28.3825 25.9873 28.3342 25.8181 28.3342C25.649 28.3342 25.3348 28.3825 25.069 28.6483L17.7706 35.9467C16.949 36.7683 15.6681 38.0975 11.3906 38.0975L20.3565 47.0392C21.7158 48.3968 23.5585 49.1594 25.4798 49.1594C27.401 49.1594 29.2437 48.3968 30.6031 47.0392L39.5931 38.0733C37.394 38.0733 35.5573 37.6383 33.8415 35.9225ZM17.7706 14.0517L25.069 21.35C25.2623 21.5433 25.5523 21.6642 25.8181 21.6642C26.084 21.6642 26.374 21.5433 26.5673 21.35L33.7931 14.1242C35.509 12.3358 37.4665 11.925 39.6656 11.925L30.6756 2.95915C29.3162 1.60147 27.4736 0.838867 25.5523 0.838867C23.631 0.838867 21.7883 1.60147 20.429 2.95915L11.4631 11.9008C15.7165 11.9008 17.0215 13.3025 17.7706 14.0517Z" fill="#E6E6E6"/>
<path d="M47.5199 19.8039L42.0824 14.3423H39.0374C37.7324 14.3423 36.4274 14.8739 35.5332 15.8164L28.2832 23.0664C27.6065 23.7431 26.7124 24.0814 25.8182 24.0814C24.8974 24.0685 24.0161 23.7056 23.3532 23.0664L16.0549 15.7439C15.1365 14.8256 13.8799 14.2939 12.5507 14.2939H8.9982L3.46404 19.8523C2.10635 21.2117 1.34375 23.0544 1.34375 24.9756C1.34375 26.8969 2.10635 28.7396 3.46404 30.0989L8.9982 35.6573H12.5749C13.8799 35.6573 15.1365 35.1256 16.079 34.2073L23.3774 26.9089C24.054 26.2323 24.9482 25.8939 25.8424 25.8939C26.7365 25.8939 27.6307 26.2323 28.3074 26.9089L35.5815 34.1831C36.4999 35.1014 37.7565 35.6331 39.0857 35.6331H42.1307L47.5682 30.1714C48.9316 28.7876 49.6918 26.9204 49.6828 24.9777C49.6737 23.0351 48.8961 21.175 47.5199 19.8039Z" fill="#E6E6E6"/>
<g clip-path="url(#clip0_1989_70956)">
<g clip-path="url(#clip1_1989_70956)">
<circle cx="41.1719" cy="42.6191" r="13.5" fill="#39A462"/>
<path d="M46.5936 38.5693L39.7803 47.3865L35.7725 43.3787" stroke="white" stroke-width="2.57143" stroke-linecap="round" stroke-linejoin="round"/>
</g>
</g>
<defs>
<clipPath id="clip0_1989_70956">
<rect width="27.2087" height="27.2087" fill="white" transform="translate(27.5 29)"/>
</clipPath>
<clipPath id="clip1_1989_70956">
<rect width="27" height="27" fill="white" transform="translate(27.6719 29.1191)"/>
</clipPath>
</defs>
</svg>
