<svg width="252" height="42" viewBox="0 0 252 42" fill="none" xmlns="http://www.w3.org/2000/svg">
<path fill-rule="evenodd" clip-rule="evenodd" d="M0 27.6294V4.98756L16.6244 0.5L33.2488 4.98756V27.6294H33.2483C33.2486 27.6633 33.2488 27.6973 33.2488 27.7313C33.2488 35.3356 25.8058 41.5 16.6244 41.5C7.44299 41.5 0 35.3356 0 27.7313C0 27.6973 0.000149022 27.6633 0.000446555 27.6294H0Z" fill="#9900CC"/>
<path fill-rule="evenodd" clip-rule="evenodd" d="M16.7291 9.72209L16.5653 9.67896L16.4026 9.72619L4.11023 13.2958L3.66895 13.424V13.8835V28.2641V28.384L3.71419 28.495C4.3554 30.0686 5.76281 32.3919 7.92606 34.3294C10.0969 36.2737 13.0555 37.8512 16.7765 37.8512C20.4944 37.8512 23.4032 36.3102 25.5144 34.4043C27.6166 32.5065 28.9488 30.2303 29.5389 28.6866L29.5792 28.581V28.4681V20.1049V18.9172L28.6121 19.6066L18.751 26.6355L15.394 24.9785L19.9876 21.4109L29.3249 14.686L29.5792 14.5029V14.1895V13.5775V13.1059L29.1231 12.9858L16.7291 9.72209ZM18.4488 21.0563L4.89283 14.8375V28.1422C5.49192 29.5606 6.78139 31.6612 8.7426 33.4177C10.7471 35.213 13.4267 36.6273 16.7765 36.6273C20.1292 36.6273 22.7571 35.2446 24.6943 33.4958C26.5924 31.7823 27.8072 29.7334 28.3553 28.3531V21.2926L19.1635 27.8445L18.8655 28.0569L18.5374 27.8949L6.3466 21.8775L6.88831 20.7801L14.174 24.3763L18.4488 21.0563ZM19.5524 20.2161L6.03018 14.0127L16.5813 10.9488L28.1793 14.0028L19.5524 20.2161Z" fill="white"/>
<path d="M16.6249 3.15173L17.1057 4.63167H18.6618L17.4029 5.54633L17.8838 7.02627L16.6249 6.11162L15.3659 7.02627L15.8468 5.54633L14.5879 4.63167H16.144L16.6249 3.15173Z" fill="white"/>
<path d="M21.7241 4.98755L21.9301 5.62181H22.597L22.0575 6.0138L22.2636 6.64806L21.7241 6.25607L21.1845 6.64806L21.3906 6.0138L20.8511 5.62181H21.518L21.7241 4.98755Z" fill="white"/>
<path d="M25.5995 6.00745L25.8056 6.64171H26.4725L25.933 7.0337L26.1391 7.66796L25.5995 7.27597L25.06 7.66796L25.2661 7.0337L24.7266 6.64171H25.3935L25.5995 6.00745Z" fill="white"/>
<path d="M11.525 4.98755L11.3189 5.62181H10.652L11.1915 6.0138L10.9854 6.64806L11.525 6.25607L12.0645 6.64806L11.8584 6.0138L12.3979 5.62181H11.731L11.525 4.98755Z" fill="white"/>
<path d="M7.64899 6.00745L7.4429 6.64171H6.776L7.31554 7.0337L7.10945 7.66796L7.64899 7.27597L8.18852 7.66796L7.98244 7.0337L8.52197 6.64171H7.85507L7.64899 6.00745Z" fill="white"/>
<path d="M43.066 32.5V16.1476H48.2139V32.5H43.066ZM53.5301 32.5V22.9443C53.5301 22.1143 53.2722 21.4751 52.7562 21.0264C52.2628 20.5554 51.6459 20.3198 50.9057 20.3198C50.3897 20.3198 49.9299 20.432 49.5261 20.6563C49.1224 20.8582 48.7971 21.1498 48.5504 21.5311C48.3261 21.9125 48.2139 22.3835 48.2139 22.9443L46.2288 22.0695C46.2288 20.7685 46.5091 19.6581 47.0699 18.7384C47.6307 17.7963 48.3934 17.0785 49.3579 16.585C50.3225 16.0691 51.4104 15.8112 52.6217 15.8112C53.7656 15.8112 54.7863 16.0691 55.6835 16.585C56.6032 17.101 57.3322 17.8188 57.8706 18.7384C58.4089 19.6581 58.6781 20.7573 58.6781 22.0358V32.5H53.5301ZM63.9943 32.5V22.9443C63.9943 22.1143 63.7363 21.4751 63.2204 21.0264C62.7269 20.5554 62.1101 20.3198 61.3698 20.3198C60.8539 20.3198 60.3941 20.432 59.9903 20.6563C59.5866 20.8582 59.2613 21.1498 59.0146 21.5311C58.7902 21.9125 58.6781 22.3835 58.6781 22.9443L55.7172 22.5405C55.762 21.1498 56.0873 19.9609 56.6929 18.974C57.321 17.9646 58.1397 17.1907 59.1491 16.6523C60.181 16.0916 61.3362 15.8112 62.6148 15.8112C63.8709 15.8112 64.9813 16.0803 65.9458 16.6187C66.9328 17.1346 67.7067 17.8861 68.2674 18.873C68.8506 19.8376 69.1423 21.004 69.1423 22.3723V32.5H63.9943ZM81.5595 32.8701C80.0566 32.8701 78.722 32.5673 77.5555 31.9617C76.4115 31.3336 75.5143 30.4812 74.8638 29.4045C74.2133 28.3054 73.888 27.0492 73.888 25.636V16.1476H79.036V25.5688C79.036 26.1295 79.1257 26.6118 79.3052 27.0156C79.5071 27.4193 79.7987 27.7334 80.18 27.9577C80.5613 28.182 81.0212 28.2941 81.5595 28.2941C82.3222 28.2941 82.9278 28.0586 83.3764 27.5876C83.8251 27.0941 84.0494 26.4211 84.0494 25.5688V16.1476H89.1973V25.6024C89.1973 27.038 88.8721 28.3054 88.2216 29.4045C87.5711 30.4812 86.6738 31.3336 85.5298 31.9617C84.3858 32.5673 83.0624 32.8701 81.5595 32.8701ZM94.2801 32.5V8.07239H99.4281V32.5H94.2801ZM107.225 32.5V9.38462H112.373V32.5H107.225ZM103.524 20.5217V16.1476H116.075V20.5217H103.524ZM120.193 32.5V16.1476H125.341V32.5H120.193ZM122.784 13.8933C121.977 13.8933 121.304 13.6241 120.765 13.0858C120.25 12.525 119.992 11.8521 119.992 11.067C119.992 10.2594 120.25 9.5865 120.765 9.04815C121.304 8.5098 121.977 8.24063 122.784 8.24063C123.592 8.24063 124.253 8.5098 124.769 9.04815C125.285 9.5865 125.543 10.2594 125.543 11.067C125.543 11.8521 125.285 12.525 124.769 13.0858C124.253 13.6241 123.592 13.8933 122.784 13.8933Z" fill="white"/>
<path d="M136.924 13.2384C136.264 13.2384 135.717 13.4647 135.284 13.9172C134.869 14.3698 134.661 14.9543 134.661 15.6708V19.2629H137.716V21.0166H134.661V32.5H132.738V21.0166H131.041V19.2629H132.738V15.6708C132.738 14.4452 133.125 13.4458 133.898 12.6727C134.69 11.8807 135.698 11.4848 136.924 11.4848H137.716V13.2384H136.924ZM152.124 19.2629V32.5H150.201V30.5484C149.654 31.3026 148.984 31.8966 148.192 32.3303C147.4 32.7451 146.533 32.9525 145.59 32.9525C144.327 32.9525 143.195 32.6508 142.196 32.0475C141.197 31.4441 140.414 30.605 139.848 29.5301C139.283 28.4553 139 27.2297 139 25.8532C139 24.4955 139.273 23.2887 139.82 22.2328C140.386 21.158 141.159 20.3189 142.139 19.7155C143.139 19.1121 144.27 18.8104 145.534 18.8104C146.495 18.8104 147.372 19.0272 148.164 19.4609C148.975 19.8758 149.654 20.4697 150.201 21.2428V19.2629H152.124ZM145.534 31.1989C146.439 31.1989 147.24 30.9726 147.938 30.5201C148.654 30.0676 149.211 29.4359 149.607 28.6251C150.003 27.8142 150.201 26.8997 150.201 25.8815C150.201 24.8632 150.003 23.9487 149.607 23.1379C149.211 22.3271 148.654 21.6954 147.938 21.2428C147.24 20.7903 146.439 20.564 145.534 20.564C144.647 20.564 143.855 20.7903 143.158 21.2428C142.46 21.6954 141.913 22.3271 141.517 23.1379C141.121 23.9299 140.923 24.835 140.923 25.8532C140.923 26.8903 141.121 27.8142 141.517 28.6251C141.913 29.4359 142.46 30.0676 143.158 30.5201C143.855 30.9726 144.647 31.1989 145.534 31.1989ZM161.417 32.9525C160.134 32.9525 158.994 32.6508 157.994 32.0475C156.995 31.4441 156.212 30.605 155.647 29.5301C155.081 28.4553 154.798 27.2391 154.798 25.8815C154.798 24.5238 155.071 23.3076 155.618 22.2328C156.184 21.158 156.966 20.3189 157.966 19.7155C158.965 19.1121 160.097 18.8104 161.36 18.8104C162.435 18.8104 163.368 19.0461 164.16 19.5175C164.971 19.9701 165.706 20.6206 166.366 21.4691L164.952 22.5722C164.028 21.2334 162.831 20.564 161.36 20.564C160.474 20.564 159.672 20.7903 158.956 21.2428C158.258 21.6954 157.711 22.3271 157.315 23.1379C156.919 23.9487 156.721 24.8632 156.721 25.8815C156.721 26.8997 156.919 27.8142 157.315 28.6251C157.711 29.4359 158.258 30.0676 158.956 30.5201C159.672 30.9726 160.474 31.1989 161.36 31.1989C162.265 31.1989 163.01 31.0481 163.594 30.7464C164.179 30.4258 164.707 29.9638 165.178 29.3604L166.677 30.407C166.055 31.1801 165.282 31.8023 164.358 32.2737C163.453 32.7263 162.472 32.9525 161.417 32.9525ZM180.779 19.2629V32.5H178.856V30.2938C178.403 31.1424 177.8 31.8023 177.045 32.2737C176.31 32.7263 175.452 32.9525 174.472 32.9525C173.548 32.9525 172.69 32.764 171.898 32.3869C171.125 32.0097 170.502 31.4535 170.031 30.7181C169.578 29.9827 169.352 29.1153 169.352 28.1159V19.2629H171.275V27.2674C171.275 29.8884 172.444 31.1989 174.783 31.1989C176.14 31.1989 177.159 30.7181 177.837 29.7564C178.516 28.7948 178.856 27.5031 178.856 25.8815V19.2629H180.779ZM184.487 32.5V11.9656H186.411V32.5H184.487ZM202.395 11.9656V32.5H200.471V30.5484C199.925 31.3026 199.255 31.8966 198.463 32.3303C197.671 32.7451 196.804 32.9525 195.861 32.9525C194.598 32.9525 193.466 32.6508 192.467 32.0475C191.468 31.4441 190.685 30.605 190.119 29.5301C189.554 28.4553 189.271 27.2297 189.271 25.8532C189.271 24.4955 189.544 23.2887 190.091 22.2328C190.657 21.158 191.43 20.3189 192.41 19.7155C193.41 19.1121 194.541 18.8104 195.805 18.8104C196.766 18.8104 197.643 19.0272 198.435 19.4609C199.246 19.8758 199.925 20.4697 200.471 21.2428V11.9656H202.395ZM195.805 31.1989C196.71 31.1989 197.511 30.9726 198.209 30.5201C198.925 30.0676 199.481 29.4359 199.877 28.6251C200.273 27.8142 200.471 26.8997 200.471 25.8815C200.471 24.8632 200.273 23.9487 199.877 23.1379C199.481 22.3271 198.925 21.6954 198.209 21.2428C197.511 20.7903 196.71 20.564 195.805 20.564C194.918 20.564 194.126 20.7903 193.429 21.2428C192.731 21.6954 192.184 22.3271 191.788 23.1379C191.392 23.9299 191.194 24.835 191.194 25.8532C191.194 26.8903 191.392 27.8142 191.788 28.6251C192.184 29.4359 192.731 30.0676 193.429 30.5201C194.126 30.9726 194.918 31.1989 195.805 31.1989ZM218.249 19.2629V32.5H216.326V30.5484C215.779 31.3026 215.11 31.8966 214.318 32.3303C213.526 32.7451 212.659 32.9525 211.716 32.9525C210.452 32.9525 209.321 32.6508 208.322 32.0475C207.322 31.4441 206.54 30.605 205.974 29.5301C205.408 28.4553 205.126 27.2297 205.126 25.8532C205.126 24.4955 205.399 23.2887 205.946 22.2328C206.511 21.158 207.285 20.3189 208.265 19.7155C209.264 19.1121 210.396 18.8104 211.659 18.8104C212.621 18.8104 213.498 19.0272 214.29 19.4609C215.1 19.8758 215.779 20.4697 216.326 21.2428V19.2629H218.249ZM211.659 31.1989C212.564 31.1989 213.366 30.9726 214.063 30.5201C214.78 30.0676 215.336 29.4359 215.732 28.6251C216.128 27.8142 216.326 26.8997 216.326 25.8815C216.326 24.8632 216.128 23.9487 215.732 23.1379C215.336 22.3271 214.78 21.6954 214.063 21.2428C213.366 20.7903 212.564 20.564 211.659 20.564C210.773 20.564 209.981 20.7903 209.283 21.2428C208.586 21.6954 208.039 22.3271 207.643 23.1379C207.247 23.9299 207.049 24.835 207.049 25.8532C207.049 26.8903 207.247 27.8142 207.643 28.6251C208.039 29.4359 208.586 30.0676 209.283 30.5201C209.981 30.9726 210.773 31.1989 211.659 31.1989ZM234.104 11.9656V32.5H232.181V30.5484C231.634 31.3026 230.965 31.8966 230.173 32.3303C229.381 32.7451 228.513 32.9525 227.57 32.9525C226.307 32.9525 225.176 32.6508 224.176 32.0475C223.177 31.4441 222.394 30.605 221.829 29.5301C221.263 28.4553 220.98 27.2297 220.98 25.8532C220.98 24.4955 221.254 23.2887 221.8 22.2328C222.366 21.158 223.139 20.3189 224.12 19.7155C225.119 19.1121 226.25 18.8104 227.514 18.8104C228.476 18.8104 229.352 19.0272 230.144 19.4609C230.955 19.8758 231.634 20.4697 232.181 21.2428V11.9656H234.104ZM227.514 31.1989C228.419 31.1989 229.22 30.9726 229.918 30.5201C230.635 30.0676 231.191 29.4359 231.587 28.6251C231.983 27.8142 232.181 26.8997 232.181 25.8815C232.181 24.8632 231.983 23.9487 231.587 23.1379C231.191 22.3271 230.635 21.6954 229.918 21.2428C229.22 20.7903 228.419 20.564 227.514 20.564C226.628 20.564 225.836 20.7903 225.138 21.2428C224.44 21.6954 223.893 22.3271 223.497 23.1379C223.102 23.9299 222.904 24.835 222.904 25.8532C222.904 26.8903 223.102 27.8142 223.497 28.6251C223.893 29.4359 224.44 30.0676 225.138 30.5201C225.836 30.9726 226.628 31.1989 227.514 31.1989ZM243.369 18.8104C244.556 18.8104 245.631 19.1027 246.593 19.6872C247.555 20.2718 248.309 21.0731 248.856 22.0914C249.403 23.0908 249.676 24.2127 249.676 25.4572C249.676 25.8155 249.667 26.0889 249.648 26.2775H238.758C238.834 27.6351 239.277 28.7948 240.088 29.7564C240.898 30.7181 242.001 31.1989 243.397 31.1989C244.528 31.1989 245.462 30.9915 246.197 30.5767C246.951 30.143 247.555 29.549 248.007 28.7948L249.535 29.813C248.912 30.7935 248.092 31.5666 247.074 32.1323C246.056 32.6791 244.849 32.9525 243.453 32.9525C242.171 32.9525 241.03 32.6508 240.031 32.0475C239.032 31.4441 238.249 30.605 237.683 29.5301C237.118 28.4553 236.835 27.2391 236.835 25.8815C236.835 24.5238 237.108 23.3076 237.655 22.2328C238.221 21.158 238.994 20.3189 239.974 19.7155C240.974 19.1121 242.105 18.8104 243.369 18.8104ZM247.753 24.6935C247.564 23.317 247.102 22.2894 246.367 21.6105C245.631 20.9129 244.632 20.564 243.369 20.564C242.143 20.564 241.134 20.96 240.342 21.752C239.569 22.5251 239.079 23.5056 238.871 24.6935H247.753Z" fill="white"/>
</svg>
