<svg width="24" height="25" viewBox="0 0 24 25" fill="none" xmlns="http://www.w3.org/2000/svg">
<path d="M12 2.375C9.99747 2.375 8.0399 2.96882 6.37486 4.08137C4.70981 5.19392 3.41206 6.77523 2.64572 8.62533C1.87939 10.4754 1.67888 12.5112 2.06955 14.4753C2.46023 16.4393 3.42454 18.2435 4.84055 19.6595C6.25656 21.0755 8.06066 22.0398 10.0247 22.4305C11.9888 22.8211 14.0246 22.6206 15.8747 21.8543C17.7248 21.0879 19.3061 19.7902 20.4186 18.1251C21.5312 16.4601 22.125 14.5025 22.125 12.5C22.122 9.8156 21.0543 7.24199 19.1562 5.34383C17.258 3.44567 14.6844 2.37798 12 2.375ZM12 20.375C10.4425 20.375 8.91993 19.9131 7.62489 19.0478C6.32985 18.1825 5.32049 16.9526 4.72445 15.5136C4.12841 14.0747 3.97246 12.4913 4.27632 10.9637C4.58018 9.43606 5.3302 8.03287 6.43154 6.93153C7.53288 5.8302 8.93607 5.08017 10.4637 4.77632C11.9913 4.47246 13.5747 4.62841 15.0136 5.22445C16.4526 5.82049 17.6825 6.82985 18.5478 8.12488C19.4131 9.41992 19.875 10.9425 19.875 12.5C19.8728 14.5879 19.0424 16.5896 17.566 18.066C16.0896 19.5424 14.0879 20.3728 12 20.375ZM18.375 12.5C18.375 12.7984 18.2565 13.0845 18.0455 13.2955C17.8345 13.5065 17.5484 13.625 17.25 13.625H12C11.7016 13.625 11.4155 13.5065 11.2045 13.2955C10.9935 13.0845 10.875 12.7984 10.875 12.5V7.25C10.875 6.95163 10.9935 6.66548 11.2045 6.4545C11.4155 6.24353 11.7016 6.125 12 6.125C12.2984 6.125 12.5845 6.24353 12.7955 6.4545C13.0065 6.66548 13.125 6.95163 13.125 7.25V11.375H17.25C17.5484 11.375 17.8345 11.4935 18.0455 11.7045C18.2565 11.9155 18.375 12.2016 18.375 12.5Z" fill="#343434"/>
</svg>
