<svg width="24" height="24" viewBox="0 0 24 24" fill="none" xmlns="http://www.w3.org/2000/svg">
<path d="M23.4188 8.01513L12.5438 2.01513C12.3773 1.92321 12.1903 1.875 12.0001 1.875C11.8099 1.875 11.6228 1.92321 11.4563 2.01513L0.581338 8.01513C0.405499 8.11242 0.25893 8.25504 0.156868 8.42815C0.0548057 8.60126 0.000976562 8.79855 0.000976563 8.99951C0.000976562 9.20047 0.0548057 9.39776 0.156868 9.57087C0.25893 9.74398 0.405499 9.88659 0.581338 9.98388L2.62509 11.1089V15.5864C2.62435 16.0473 2.79434 16.4922 3.10228 16.8351C4.37165 18.2536 7.21884 20.6254 12.0001 20.6254C13.2699 20.6323 14.5336 20.4506 15.7501 20.0864V22.5004C15.7501 22.7988 15.8686 23.085 16.0796 23.2959C16.2906 23.5069 16.5767 23.6254 16.8751 23.6254C17.1735 23.6254 17.4596 23.5069 17.6706 23.2959C17.8816 23.085 18.0001 22.7988 18.0001 22.5004V19.1367C19.0866 18.5365 20.0659 17.76 20.8979 16.8389C21.2058 16.4959 21.3758 16.0511 21.3751 15.5901V11.1126L23.4188 9.98763C23.5947 9.89034 23.7412 9.74773 23.8433 9.57462C23.9454 9.40151 23.9992 9.20422 23.9992 9.00326C23.9992 8.8023 23.9454 8.60501 23.8433 8.4319C23.7412 8.25879 23.5947 8.11617 23.4188 8.01888V8.01513ZM12.0001 4.28576L20.5463 9.00045L17.4376 10.7161C17.4318 10.7126 17.4261 10.7089 17.4207 10.7048L12.5457 8.01513C12.2854 7.88061 11.9829 7.85294 11.7026 7.93799C11.4222 8.02305 11.1861 8.21413 11.0444 8.47058C10.9028 8.72704 10.8667 9.02865 10.944 9.31126C11.0213 9.59387 11.2058 9.83519 11.4582 9.98388L15.1145 11.9986L12.0001 13.7161L3.45384 9.00045L12.0001 4.28576ZM12.0001 18.3754C8.21071 18.3754 5.93915 16.5876 4.87509 15.4439V12.3501L11.4563 15.982C11.6228 16.0739 11.8099 16.1221 12.0001 16.1221C12.1903 16.1221 12.3773 16.0739 12.5438 15.982L15.7501 14.2167V17.707C14.5522 18.1598 13.2807 18.3864 12.0001 18.3754ZM19.1251 15.4439C18.7801 15.8136 18.4037 16.1527 18.0001 16.4573V12.9745L19.1251 12.3539V15.4439Z" fill="#343434"/>
</svg>
