<svg width="158" height="163" viewBox="0 0 158 163" fill="none" xmlns="http://www.w3.org/2000/svg">
<path d="M17.1166 71.7352C17.1166 71.7352 44.8101 70.6262 50.7947 25.104C56.1091 -15.3242 102.808 3.07724 116.306 19.1928C133.793 40.0693 124.471 75.9811 147.092 80.5178C169.713 85.0545 154.941 135.495 120.604 130.667C77.8897 124.661 88.2242 149.621 75.4016 160.185C66.1991 167.767 28.4654 160.469 27.2078 132.945C26.1495 109.784 16.3797 109.857 9.45475 107.231C-0.53255 103.443 -6.82565 76.0122 17.1166 71.7352Z" fill="#DEE9FF"/>
<path d="M111.259 122.29L84.0509 95.4053L78.6633 100.858L105.871 127.743L111.259 122.29Z" fill="#699CFF"/>
<path d="M121.652 129.515L100.485 108.598C100.367 108.482 100.177 108.483 100.06 108.601L92.0483 116.709C91.9319 116.827 91.933 117.017 92.0509 117.133L113.219 138.05C113.337 138.166 113.527 138.165 113.643 138.047L121.655 129.939C121.771 129.821 121.77 129.631 121.652 129.515Z" fill="#0E84E5"/>
<path d="M59.9363 108.927C78.6546 108.927 93.8288 93.7524 93.8288 75.0341C93.8288 56.3158 78.6546 41.1416 59.9363 41.1416C41.218 41.1416 26.0438 56.3158 26.0438 75.0341C26.0438 93.7524 41.218 108.927 59.9363 108.927Z" fill="#0E84E5"/>
<path d="M59.9363 103.396C75.6003 103.396 88.2986 90.6982 88.2986 75.0342C88.2986 59.3701 75.6003 46.6719 59.9363 46.6719C44.2722 46.6719 31.574 59.3701 31.574 75.0342C31.574 90.6982 44.2722 103.396 59.9363 103.396Z" fill="#D4E5FF"/>
<path d="M117.236 44.3952C109.285 41.8183 100.694 46.1766 98.1066 54.1593C95.5298 62.1093 99.888 70.7008 107.871 73.2881C115.854 75.8754 124.423 71.4744 127 63.524C129.578 55.5736 125.186 46.972 117.236 44.3952ZM114.837 51.7962C115.727 52.0847 116.511 52.6309 117.09 53.3656C117.669 54.1004 118.016 54.9905 118.089 55.9231C118.161 56.8558 117.955 57.7889 117.496 58.6042C117.037 59.4194 116.347 60.0801 115.512 60.5024C114.678 60.9246 113.736 61.0895 112.808 60.976C111.879 60.8625 111.005 60.4759 110.297 59.865C109.588 59.2542 109.077 58.4467 108.828 57.5449C108.579 56.6432 108.604 55.6879 108.899 54.8001C109.695 52.3439 112.38 51.0001 114.837 51.7962ZM108.834 70.3148C106.193 69.4631 103.93 67.7196 102.433 65.3829C105.235 63.791 108.164 63.3476 110.814 64.2066C113.464 65.0656 115.62 67.1211 116.912 70.0757C114.329 71.0899 111.473 71.1744 108.834 70.3148Z" fill="#418DF9"/>
<path d="M51.0652 116.84C49.6843 117.545 48.5434 118.643 47.7869 119.997C47.0303 121.35 46.692 122.897 46.8148 124.442C46.9375 125.988 47.5158 127.462 48.4765 128.679C49.4373 129.896 50.7372 130.801 52.2121 131.279C53.6869 131.757 55.2704 131.787 56.7622 131.365C58.2541 130.943 59.5873 130.088 60.5933 128.908C61.5994 127.729 62.233 126.277 62.4141 124.737C62.5952 123.198 62.3156 121.639 61.6108 120.258C60.6639 118.408 59.0218 117.009 57.0448 116.368C55.0678 115.727 52.9173 115.897 51.0652 116.84ZM52.891 120.417C53.3211 120.197 53.8067 120.11 54.2862 120.167C54.7657 120.224 55.2176 120.422 55.5844 120.736C55.9513 121.05 56.2166 121.466 56.3467 121.931C56.4769 122.396 56.466 122.889 56.3154 123.348C56.1648 123.807 55.8814 124.21 55.501 124.508C55.1206 124.805 54.6605 124.983 54.1789 125.019C53.6973 125.054 53.216 124.946 52.7961 124.708C52.3761 124.469 52.0364 124.112 51.8201 123.68C51.5333 123.104 51.4849 122.439 51.6854 121.828C51.8859 121.217 52.319 120.71 52.891 120.416V120.417ZM57.4593 129.367C56.1844 130.02 54.7221 130.21 53.3228 129.903C53.7643 128.299 54.6717 127.068 55.9528 126.415C57.2339 125.761 58.7704 125.725 60.3205 126.331C59.7476 127.644 58.7362 128.717 57.4593 129.366V129.367Z" fill="#418DF9"/>
</svg>
