<svg width="16" height="16" viewBox="0 0 16 16" fill="none" xmlns="http://www.w3.org/2000/svg">
<path d="M13 4.75H11.25V3.5C11.25 2.63805 10.9076 1.8114 10.2981 1.2019C9.6886 0.59241 8.86195 0.25 8 0.25C7.13805 0.25 6.3114 0.59241 5.7019 1.2019C5.09241 1.8114 4.75 2.63805 4.75 3.5V4.75H3C2.66848 4.75 2.35054 4.8817 2.11612 5.11612C1.8817 5.35054 1.75 5.66848 1.75 6V13C1.75 13.3315 1.8817 13.6495 2.11612 13.8839C2.35054 14.1183 2.66848 14.25 3 14.25H13C13.3315 14.25 13.6495 14.1183 13.8839 13.8839C14.1183 13.6495 14.25 13.3315 14.25 13V6C14.25 5.66848 14.1183 5.35054 13.8839 5.11612C13.6495 4.8817 13.3315 4.75 13 4.75ZM6.25 3.5C6.25 3.03587 6.43437 2.59075 6.76256 2.26256C7.09075 1.93437 7.53587 1.75 8 1.75C8.46413 1.75 8.90925 1.93437 9.23744 2.26256C9.56563 2.59075 9.75 3.03587 9.75 3.5V4.75H6.25V3.5ZM12.75 12.75H3.25V6.25H12.75V12.75ZM8 7C7.536 7.00017 7.08649 7.16167 6.72847 7.45684C6.37046 7.75201 6.12621 8.16248 6.03757 8.61794C5.94893 9.0734 6.02142 9.5455 6.2426 9.95339C6.46379 10.3613 6.81993 10.6796 7.25 10.8538V11.25C7.25 11.4489 7.32902 11.6397 7.46967 11.7803C7.61032 11.921 7.80109 12 8 12C8.19891 12 8.38968 11.921 8.53033 11.7803C8.67098 11.6397 8.75 11.4489 8.75 11.25V10.8538C9.18007 10.6796 9.53621 10.3613 9.75739 9.95339C9.97858 9.5455 10.0511 9.0734 9.96243 8.61794C9.87379 8.16248 9.62954 7.75201 9.27153 7.45684C8.91351 7.16167 8.464 7.00017 8 7ZM8 8.5C8.09889 8.5 8.19556 8.52932 8.27779 8.58426C8.36001 8.63921 8.4241 8.7173 8.46194 8.80866C8.49978 8.90002 8.50969 9.00056 8.49039 9.09755C8.4711 9.19454 8.42348 9.28363 8.35355 9.35355C8.28363 9.42348 8.19454 9.4711 8.09755 9.49039C8.00056 9.50969 7.90002 9.49978 7.80866 9.46194C7.7173 9.4241 7.63921 9.36001 7.58427 9.27779C7.52932 9.19556 7.5 9.09889 7.5 9C7.5 8.86739 7.55268 8.74021 7.64645 8.64645C7.74021 8.55268 7.86739 8.5 8 8.5Z" fill="#343434"/>
</svg>
