<svg width="24" height="24" viewBox="0 0 24 24" fill="none" xmlns="http://www.w3.org/2000/svg">
<path d="M20.25 3.375H3.75C3.25272 3.375 2.77581 3.57254 2.42417 3.92417C2.07254 4.27581 1.875 4.75272 1.875 5.25V15C1.875 15.4973 2.07254 15.9742 2.42417 16.3258C2.77581 16.6775 3.25272 16.875 3.75 16.875H20.25C20.7473 16.875 21.2242 16.6775 21.5758 16.3258C21.9275 15.9742 22.125 15.4973 22.125 15V5.25C22.125 4.75272 21.9275 4.27581 21.5758 3.92417C21.2242 3.57254 20.7473 3.375 20.25 3.375ZM19.875 14.625H4.125V5.625H19.875V14.625ZM22.125 19.5C22.125 19.7984 22.0065 20.0845 21.7955 20.2955C21.5845 20.5065 21.2984 20.625 21 20.625H3C2.70163 20.625 2.41548 20.5065 2.2045 20.2955C1.99353 20.0845 1.875 19.7984 1.875 19.5C1.875 19.2016 1.99353 18.9155 2.2045 18.7045C2.41548 18.4935 2.70163 18.375 3 18.375H21C21.2984 18.375 21.5845 18.4935 21.7955 18.7045C22.0065 18.9155 22.125 19.2016 22.125 19.5ZM9.75 12V8.25C9.74993 8.04915 9.80364 7.85194 9.90554 7.67886C10.0074 7.50578 10.1538 7.36314 10.3295 7.26574C10.5051 7.16835 10.7037 7.11975 10.9044 7.12501C11.1052 7.13026 11.3009 7.18917 11.4713 7.29562L14.4713 9.17062C14.6332 9.27171 14.7668 9.41236 14.8594 9.57932C14.952 9.74629 15.0006 9.93407 15.0006 10.125C15.0006 10.3159 14.952 10.5037 14.8594 10.6707C14.7668 10.8376 14.6332 10.9783 14.4713 11.0794L11.4713 12.9544C11.3009 13.0608 11.1052 13.1197 10.9044 13.125C10.7037 13.1302 10.5051 13.0817 10.3295 12.9843C10.1538 12.8869 10.0074 12.7442 9.90554 12.5711C9.80364 12.3981 9.74993 12.2009 9.75 12Z" fill="#343434"/>
</svg>
